<?xml version="1.0" standalone="no"?>
<!DOCTYPE svg PUBLIC "-//W3C//DTD SVG 20010904//EN"
 "http://www.w3.org/TR/2001/REC-SVG-20010904/DTD/svg10.dtd">
<svg version="1.0" xmlns="http://www.w3.org/2000/svg"
 width="128.000000pt" height="128.000000pt" viewBox="0 0 128.000000 128.000000"
 preserveAspectRatio="xMidYMid meet">
<metadata>
Created by potrace 1.11, written by Peter Selinger 2001-2013
</metadata>
<g transform="translate(0.000000,128.000000) scale(0.100000,-0.100000)"
fill="#000000" stroke="none">
<path d="M21 1040 c-20 -5 -20 -6 -5 -35 60 -115 184 -364 184 -371 0 -4 -45
-97 -101 -206 l-100 -199 116 3 c112 3 117 4 131 28 8 14 55 103 104 199 l89
175 -66 130 c-90 179 -133 259 -142 269 -9 9 -178 15 -210 7z"/>
<path d="M1070 1040 c-16 -4 -48 -57 -125 -205 l-104 -200 103 -200 104 -200
117 -3 c68 -1 115 1 113 6 -1 6 -48 97 -102 204 l-99 193 101 200 c56 109 100
201 98 203 -6 6 -182 8 -206 2z"/>
<path d="M587 796 c-50 -18 -76 -42 -97 -90 -31 -68 -10 -154 47 -194 105 -73
228 -32 264 89 23 77 -21 159 -103 193 -45 19 -61 19 -111 2z"/>
</g>
</svg>
